<svg width="27" height="27" viewBox="0 0 27 27" fill="none" xmlns="http://www.w3.org/2000/svg">
<path fill-rule="evenodd" clip-rule="evenodd" d="M13.5002 24.3C16.3645 24.3 19.1116 23.1622 21.1369 21.1368C23.1623 19.1114 24.3002 16.3644 24.3002 13.5C24.3002 10.6357 23.1623 7.88865 21.1369 5.86326C19.1116 3.83787 16.3645 2.70001 13.5002 2.70001C10.6359 2.70001 7.88883 3.83787 5.86344 5.86326C3.83805 7.88865 2.7002 10.6357 2.7002 13.5C2.7002 16.3644 3.83805 19.1114 5.86344 21.1368C7.88883 23.1622 10.6359 24.3 13.5002 24.3ZM14.8502 8.10001C14.8502 7.74197 14.708 7.39859 14.4548 7.14542C14.2016 6.89224 13.8582 6.75001 13.5002 6.75001C13.1422 6.75001 12.7988 6.89224 12.5456 7.14542C12.2924 7.39859 12.1502 7.74197 12.1502 8.10001V13.5C12.1503 13.858 12.2926 14.2013 12.5457 14.4545L16.3635 18.2736C16.489 18.399 16.6379 18.4985 16.8018 18.5664C16.9656 18.6343 17.1413 18.6692 17.3187 18.6692C17.4961 18.6692 17.6717 18.6343 17.8356 18.5664C17.9995 18.4985 18.1484 18.399 18.2738 18.2736C18.3992 18.1482 18.4987 17.9993 18.5666 17.8354C18.6345 17.6715 18.6694 17.4959 18.6694 17.3185C18.6694 17.1411 18.6345 16.9655 18.5666 16.8016C18.4987 16.6377 18.3992 16.4888 18.2738 16.3634L14.8502 12.9411V8.10001Z" fill="white"/>
</svg>
